<svg width="70" height="70" viewBox="0 0 70 70" fill="none" xmlns="http://www.w3.org/2000/svg">
<path d="M35 0C54.2985 0 70 15.7015 70 35C70 54.2985 54.2985 70 35 70C15.7015 70 0 54.2985 0 35C0 15.7015 15.7015 0 35 0ZM35 66.5029C52.3715 66.5029 66.5029 52.3715 66.5029 35C66.5029 17.6285 52.3715 3.49715 35 3.49715C17.6285 3.49715 3.49715 17.6285 3.49715 35C3.49715 52.3715 17.6285 66.5029 35 66.5029Z" fill="url(#paint0_linear_239_5822)"/>
<path d="M18.5562 33.7582L28.391 23.9233C29.0762 23.2382 30.1753 23.2382 30.8605 23.9233C31.5456 24.6085 31.5456 25.7076 30.8605 26.3927L24.0089 33.2443H50.2018C51.1724 33.2443 51.9575 34.0294 51.9575 35C51.9575 35.9706 51.1724 36.7557 50.2018 36.7557H24.0232L30.8747 43.6073C31.5599 44.2924 31.5599 45.3915 30.8747 46.0767C30.1896 46.7618 29.0905 46.7618 28.4053 46.0767L18.5705 36.2419C18.2279 35.8993 18.0566 35.4568 18.0566 35C18.0566 34.5432 18.2136 34.1007 18.5562 33.7582Z" fill="url(#paint1_linear_239_5822)"/>
<defs>
<linearGradient id="paint0_linear_239_5822" x1="70" y1="35" x2="0" y2="35" gradientUnits="userSpaceOnUse">
<stop stop-color="#656D9E"/>
<stop offset="1" stop-color="#454A68"/>
</linearGradient>
<linearGradient id="paint1_linear_239_5822" x1="51.9575" y1="35" x2="18.0566" y2="35" gradientUnits="userSpaceOnUse">
<stop stop-color="#656D9E"/>
<stop offset="1" stop-color="#454A68"/>
</linearGradient>
</defs>
</svg>
