<svg width="70" height="70" viewBox="0 0 70 70" fill="none" xmlns="http://www.w3.org/2000/svg">
<path d="M35 0C15.7015 0 0 15.7015 0 35C0 54.2985 15.7015 70 35 70C54.2985 70 70 54.2985 70 35C70 15.7015 54.2985 0 35 0ZM35 66.5029C17.6285 66.5029 3.49715 52.3715 3.49715 35C3.49715 17.6285 17.6285 3.49715 35 3.49715C52.3715 3.49715 66.5029 17.6285 66.5029 35C66.5029 52.3715 52.3715 66.5029 35 66.5029Z" fill="url(#paint0_linear_239_5802)"/>
<path d="M51.4438 33.7582L41.609 23.9233C40.9238 23.2382 39.8247 23.2382 39.1395 23.9233C38.4544 24.6085 38.4544 25.7076 39.1395 26.3927L45.9911 33.2443H19.7982C18.8276 33.2443 18.0425 34.0294 18.0425 35C18.0425 35.9706 18.8276 36.7557 19.7982 36.7557H45.9768L39.1253 43.6073C38.4401 44.2924 38.4401 45.3915 39.1253 46.0767C39.8104 46.7618 40.9095 46.7618 41.5947 46.0767L51.4295 36.2419C51.7721 35.8993 51.9434 35.4568 51.9434 35C51.9434 34.5432 51.7864 34.1007 51.4438 33.7582Z" fill="url(#paint1_linear_239_5802)"/>
<defs>
<linearGradient id="paint0_linear_239_5802" x1="0" y1="35" x2="70" y2="35" gradientUnits="userSpaceOnUse">
<stop stop-color="#656D9E"/>
<stop offset="1" stop-color="#454A68"/>
</linearGradient>
<linearGradient id="paint1_linear_239_5802" x1="18.0425" y1="35" x2="51.9434" y2="35" gradientUnits="userSpaceOnUse">
<stop stop-color="#656D9E"/>
<stop offset="1" stop-color="#454A68"/>
</linearGradient>
</defs>
</svg>
