<svg width="100" height="100" viewBox="0 0 100 100" fill="none" xmlns="http://www.w3.org/2000/svg">
<rect width="100" height="100" rx="10" fill="url(#paint0_linear_144_3743)"/>
<g clip-path="url(#clip0_144_3743)">
<path d="M57.0296 31.7197C56.3834 31.7197 55.8577 31.194 55.8577 30.5479C55.8577 29.9017 56.3834 29.376 57.0296 29.376C57.4447 29.376 57.8831 29.5877 58.297 29.9885C58.7621 30.4386 59.5039 30.4264 59.9539 29.9612C60.4039 29.4961 60.3917 28.7543 59.9266 28.3043C59.3319 27.7288 58.7368 27.4034 58.2012 27.2256V25.8606C58.2012 25.2134 57.6766 24.6888 57.0294 24.6888C56.3821 24.6888 55.8575 25.2135 55.8575 25.8606V27.2339C54.4937 27.7177 53.5139 29.0201 53.5139 30.5479C53.5139 32.4863 55.0909 34.0632 57.0292 34.0632C57.6754 34.0632 58.2011 34.5889 58.2011 35.2351C58.2011 35.8813 57.6754 36.407 57.0292 36.407C56.5286 36.407 55.9882 36.0921 55.5076 35.5205C55.0911 35.025 54.3521 34.961 53.8566 35.3776C53.3612 35.7941 53.2973 36.5333 53.7138 37.0285C54.3403 37.7737 55.0768 38.2929 55.8575 38.5547V39.9223C55.8575 40.5695 56.3821 41.094 57.0294 41.094C57.6766 41.094 58.2011 40.5694 58.2011 39.9223V38.5489C59.5649 38.0652 60.5447 36.7628 60.5447 35.235C60.545 33.2967 58.968 31.7197 57.0296 31.7197Z" fill="#FBFBFB"/>
<path d="M57.0295 20.0016C49.922 20.0016 44.1396 25.7841 44.1396 32.8915C44.1396 39.9989 49.9221 45.7814 57.0295 45.7814C64.1371 45.7814 69.9194 39.9989 69.9194 32.8915C69.9194 25.7841 64.1371 20.0016 57.0295 20.0016ZM57.0295 43.4378C51.2144 43.4378 46.4833 38.7067 46.4833 32.8915C46.4833 27.0763 51.2144 22.3452 57.0295 22.3452C62.8447 22.3452 67.5758 27.0763 67.5758 32.8915C67.5758 38.7067 62.8447 43.4378 57.0295 43.4378Z" fill="#FBFBFB"/>
<path d="M75.567 46.1011C73.7727 46.0315 72.0955 47.0251 71.2924 48.6309C69.8304 51.5542 68.4456 53.0578 65.7804 54.4366C64.9972 52.9083 63.4001 51.8749 61.6054 51.8749H49.8638C49.1152 51.8749 48.5104 51.5562 47.6731 51.1151C46.3337 50.4094 44.6669 49.5313 41.6611 49.5313C36.2916 49.5313 31.075 54.8003 28.909 58.4914L28.6296 58.2119C28.1721 57.7545 27.4299 57.7544 26.9723 58.2119L20.3432 64.8409C20.1234 65.0607 19.9999 65.3591 20 65.6701C20.0001 65.9811 20.124 66.2793 20.3442 66.4991L33.5306 79.6561C33.9872 80.1119 34.7272 80.1129 35.1849 79.6571L41.8138 73.0574C42.273 72.6003 42.2739 71.8567 41.8157 71.3984L40.7425 70.3252C41.5451 69.19 43.5905 68.2803 45.0393 68.2803C45.0399 68.2803 45.0406 68.2803 45.0412 68.2803L60.859 68.285C60.8613 68.285 60.8637 68.285 60.8661 68.285C62.9113 68.285 64.873 67.7182 66.5395 66.6458C70.814 63.897 76.8261 59.4236 79.6721 52.3408C80.8568 49.3921 78.6802 46.223 75.567 46.1011ZM34.3594 77.1722L22.8302 65.6687L27.801 60.6978C30.5718 63.4686 33.4975 66.3949 39.3285 72.2253L34.3594 77.1722ZM77.4977 51.4673C74.9013 57.9285 69.277 62.0993 65.2718 64.6747C63.9841 65.5034 62.4608 65.9412 60.866 65.9412C60.8641 65.9412 60.8623 65.9412 60.8604 65.9412L45.0425 65.9366C45.0414 65.9366 45.0403 65.9366 45.0392 65.9366C42.9924 65.9366 40.4573 66.999 39.0763 68.6587L30.6347 60.2172C31.5644 58.3061 36.4236 51.8749 41.6611 51.8749C44.0874 51.8749 45.3549 52.5428 46.5808 53.1885C47.5419 53.6948 48.5357 54.2185 49.8639 54.2185H61.6055C62.7682 54.2185 63.7653 55.084 63.9262 56.2394C64.1272 57.6124 63.0491 58.9058 61.6055 58.9058H49.8638C49.2165 58.9058 48.6919 59.4304 48.6919 60.0775C48.6919 60.7248 49.2165 61.2494 49.8638 61.2494H61.6054C64.1091 61.2494 66.1605 59.2762 66.2865 56.8032C69.7603 55.1202 71.606 53.2431 73.3885 49.6792C73.7809 48.8944 74.5998 48.4094 75.476 48.443C77.0181 48.5033 78.0615 50.0637 77.4977 51.4673Z" fill="#FBFBFB"/>
</g>
<defs>
<linearGradient id="paint0_linear_144_3743" x1="50" y1="0" x2="50" y2="100" gradientUnits="userSpaceOnUse">
<stop stop-color="#656D9E"/>
<stop offset="1" stop-color="#454A68"/>
</linearGradient>
<clipPath id="clip0_144_3743">
<rect x="20" y="20" width="60" height="60" rx="10" fill="white"/>
</clipPath>
</defs>
</svg>
