<svg width="60" height="60" viewBox="0 0 60 60" fill="none" xmlns="http://www.w3.org/2000/svg">
<circle cx="30" cy="30" r="30" fill="#283845"/>
<path d="M18 29C17.4477 29 17 29.4477 17 30C17 30.5523 17.4477 31 18 31V29ZM43.7071 30.7071C44.0976 30.3166 44.0976 29.6834 43.7071 29.2929L37.3431 22.9289C36.9526 22.5384 36.3195 22.5384 35.9289 22.9289C35.5384 23.3195 35.5384 23.9526 35.9289 24.3431L41.5858 30L35.9289 35.6569C35.5384 36.0474 35.5384 36.6805 35.9289 37.0711C36.3195 37.4616 36.9526 37.4616 37.3431 37.0711L43.7071 30.7071ZM18 31H43V29H18V31Z" fill="#FBFBFB"/>
</svg>
